<?xml version="1.0" encoding="iso-8859-1"?>
<!-- Uploaded to: SVG Repo, www.svgrepo.com, Generator: SVG Repo Mixer Tools -->
<svg height="800px" width="800px" version="1.1" id="Capa_1" xmlns="http://www.w3.org/2000/svg" xmlns:xlink="http://www.w3.org/1999/xlink" 
	 viewBox="0 0 319.204 319.204" xml:space="preserve">
<g>
	<g>
		<path style="fill:#010002;" d="M159.602,101.132c-32.239,0-58.469,26.23-58.469,58.469s26.23,58.469,58.469,58.469
			c32.233,0,58.457-26.23,58.457-58.469S191.835,101.132,159.602,101.132z M159.602,186.668c-14.923,0-27.066-12.143-27.066-27.066
			s12.143-27.066,27.066-27.066s27.066,12.143,27.066,27.066S174.525,186.668,159.602,186.668z"/>
		<path style="fill:#010002;" d="M159.602,59.245c-55.331,0-100.351,45.02-100.351,100.357s45.014,100.357,100.351,100.357
			s100.351-45.02,100.351-100.357S214.933,59.245,159.602,59.245z M159.602,230.005c-38.82,0-70.403-31.583-70.403-70.403
			s31.583-70.403,70.403-70.403c38.814,0,70.391,31.583,70.391,70.403S198.416,230.005,159.602,230.005z"/>
		<path style="fill:#010002;" d="M159.602,0C71.596,0,0,71.596,0,159.602s71.596,159.602,159.602,159.602
			s159.602-71.596,159.602-159.602S247.607,0,159.602,0z M159.602,271.892c-61.912,0-112.285-50.372-112.285-112.291
			S97.69,47.311,159.602,47.311c61.918,0,112.285,50.372,112.285,112.291S221.52,271.892,159.602,271.892z"/>
		<circle style="fill:#010002;" cx="159.602" cy="159.602" r="15.132"/>
	</g>
</g>
</svg>