<svg class="svg-icon" style="width: 1em; height: 1em;vertical-align: middle;fill: rgb(76, 76, 231);overflow: hidden;" viewBox="0 0 1024 1024" version="1.1" xmlns="http://www.w3.org/2000/svg"><path d="M956.275349 804.483661l-316.280469-527.01124 0-213.454502 32.00896 0c17.591616 0 32.00896-14.396864 32.00896-32.00896s-14.396864-32.00896-32.00896-32.00896l-319.987201 0c-17.591616 0-32.00896 14.396864-32.00896 32.00896s14.396864 32.00896 32.00896 32.00896l32.00896 0 0 213.454502-316.280469 527.01124c-72.434863 120.724771-16.50622 219.516339 124.288148 219.516339l639.974401 0c140.794368 0 196.723011-98.771089 124.288148-219.516339zM241.039958 640.015359l206.962601-344.930843 0-231.046118 127.99488 0 0 231.046118 206.962601 344.930843-541.899604 0z"  /></svg>